<?xml version="1.0" encoding="UTF-8"?>
<svg id="_레이어_1" data-name="레이어 1" xmlns="http://www.w3.org/2000/svg" viewBox="0 0 862.46 1104.18">
  <defs>
    <style>
      .cls-1 {
        fill: #666;
        stroke-width: 0px;
      }
    </style>
  </defs>
  <path class="cls-1" d="M28.82,850.62c-7.94.31-15.43,3.76-20.82,9.59-5.4,5.82-8.27,13.55-7.98,21.49,1.91,48.74,22.09,94.98,56.53,129.53,34.44,34.55,80.61,54.88,129.35,56.95h7.56c42.55.12,83.94-13.82,117.73-39.67,33.79-25.85,58.09-62.15,69.11-103.25,5.8-23.01,14.43-45.22,25.68-66.12l1.08-1.8c33.3-57.76,81.23-105.73,138.96-139.08,66.47-39.23,119.65-97.5,152.67-167.28,33.02-69.77,44.35-147.84,32.53-224.12-11.82-76.28-46.23-147.27-98.81-203.78-52.57-56.52-120.89-95.97-196.12-113.27C361.07-7.48,282.38-1.82,210.4,26.07,138.43,53.96,76.47,102.8,32.53,166.26c-4.75,6.55-6.66,14.74-5.28,22.71,1.37,7.97,5.91,15.05,12.58,19.63,6.67,4.58,14.91,6.28,22.84,4.7,7.94-1.58,14.9-6.3,19.31-13.08,27.01-39.23,62.36-72,103.52-95.96,41.16-23.96,87.11-38.52,134.56-42.64,73.73-6.84,147.6,11.66,209.41,52.44,61.81,40.78,107.88,101.41,130.61,171.88,22.73,70.48,20.76,146.6-5.58,215.8-26.34,69.2-75.48,127.38-139.31,164.91-66.74,38.82-122.07,94.52-160.44,161.52l-1.08,1.8c-13.66,25.16-24.14,51.93-31.2,79.68-7.86,29.24-25.44,54.93-49.84,72.83-24.41,17.91-54.19,26.97-84.44,25.69-33.52-1.8-65.18-15.96-88.88-39.73-23.69-23.78-37.73-55.5-39.41-89.03-.31-7.93-3.76-15.43-9.59-20.82-5.82-5.4-13.55-8.27-21.49-7.97h0Z"/>
  <path class="cls-1" d="M227.18,533.46l-144,87.72c-7.5,3.76-13.09,10.5-15.4,18.57-2.31,8.07-1.13,16.74,3.25,23.91,4.38,7.16,11.57,12.16,19.81,13.78,8.23,1.62,16.78-.29,23.54-5.25l144-87.6c32.96-19.43,54.68-53.41,58.48-91.48,3.8-38.07-10.8-75.68-39.28-101.22-28.48-25.55-67.44-35.99-104.88-28.09,2.24-9.05,5.38-17.85,9.36-26.28,13.8-29.55,35.01-55.02,61.57-73.95,26.56-18.92,57.56-30.65,90-34.05l-2.76-29.88,4.32,30.12c47.84-4.66,95.17,12.87,128.43,47.56,33.26,34.7,48.78,82.73,42.1,130.33-6.68,47.6-34.81,89.5-76.34,113.71-84,49.44-144,130.2-184.2,246.96-2.95,7.59-2.68,16.05.74,23.44,3.42,7.39,9.69,13.08,17.38,15.75s16.14,2.1,23.4-1.58c7.27-3.68,12.72-10.15,15.12-17.93,36-104.16,86.4-172.56,158.16-215.04,42.61-24.97,75.43-63.72,93.02-109.87s18.9-96.91,3.71-143.9c-15.18-46.99-45.95-87.39-87.21-114.52s-90.55-39.36-139.71-34.67h-1.8c-42.78,4.43-83.68,19.85-118.74,44.77-35.05,24.92-63.06,58.48-81.3,97.43-11.55,24.45-18.09,50.96-19.24,77.98-1.16,27.02,3.1,53.99,12.52,79.34l7.92,21c2.57,7.74,8.17,14.09,15.52,17.61,7.35,3.52,15.82,3.89,23.46,1.04,7.64-2.86,13.78-8.7,17.02-16.17,3.24-7.48,3.3-15.96.16-23.48l-7.92-21c-2.5-6.84-4.47-13.86-5.88-21,13.48-6.19,28.79-7.16,42.95-2.73,14.16,4.43,26.18,13.96,33.73,26.73,8.04,13.66,10.34,29.95,6.41,45.31-3.94,15.35-13.79,28.53-27.41,36.65h0Z"/>
  <path class="cls-1" d="M537.38,960.18c47.97-.06,93.96-19.17,127.85-53.13,33.89-33.96,52.91-79.98,52.88-127.95,0-10.72-5.72-20.62-15-25.98-9.29-5.36-20.72-5.36-30,0-9.29,5.36-15,15.27-15,25.98.03,32.06-12.67,62.82-35.3,85.52-22.63,22.7-53.35,35.49-85.42,35.55-10.72,0-20.62,5.72-25.98,15s-5.36,20.72,0,30,15.26,15,25.98,15h0Z"/>
  <path class="cls-1" d="M552.5,1104.18c82.18-.09,160.96-32.78,219.07-90.89,58.1-58.11,90.79-136.89,90.89-219.07,0-10.72-5.72-20.62-15-25.98-9.29-5.36-20.72-5.36-30,0-9.29,5.36-15,15.26-15,25.98-.1,66.27-26.46,129.79-73.32,176.64-46.86,46.86-110.38,73.22-176.64,73.32-10.72,0-20.62,5.72-25.98,15s-5.36,20.72,0,30,15.26,15,25.98,15h0Z"/>
</svg>